<svg xmlns="http://www.w3.org/2000/svg" xmlns:xlink="http://www.w3.org/1999/xlink" version="1.1" width="811px" height="208px" viewBox="-0.5 -0.5 811 208"><defs><clipPath id="mx-clip-218-131-162-26-0"><rect x="218" y="131" width="162" height="26"/></clipPath><clipPath id="mx-clip-218-157-162-26-0"><rect x="218" y="157" width="162" height="26"/></clipPath><clipPath id="mx-clip-218-183-162-26-0"><rect x="218" y="183" width="162" height="26"/></clipPath><clipPath id="mx-clip-448-131-122-26-0"><rect x="448" y="131" width="122" height="26"/></clipPath><clipPath id="mx-clip-448-157-122-26-0"><rect x="448" y="157" width="122" height="26"/></clipPath><clipPath id="mx-clip-454-31-142-26-0"><rect x="454" y="31" width="142" height="26"/></clipPath><clipPath id="mx-clip-454-57-142-26-0"><rect x="454" y="57" width="142" height="26"/></clipPath><clipPath id="mx-clip-194-31-212-26-0"><rect x="194" y="31" width="212" height="26"/></clipPath><clipPath id="mx-clip-194-57-212-26-0"><rect x="194" y="57" width="212" height="26"/></clipPath><clipPath id="mx-clip-4-31-132-26-0"><rect x="4" y="31" width="132" height="26"/></clipPath><clipPath id="mx-clip-644-31-162-26-0"><rect x="644" y="31" width="162" height="26"/></clipPath></defs><g><path d="M 214 126 L 214 100 L 384 100 L 384 126" fill="#ffc9b3" stroke="#919191" stroke-miterlimit="10" pointer-events="all"/><path d="M 214 126 L 214 204 L 384 204 L 384 126" fill="none" stroke="#919191" stroke-miterlimit="10" pointer-events="none"/><path d="M 214 126 L 384 126" fill="none" stroke="#919191" stroke-miterlimit="10" pointer-events="none"/><g fill="#333333" font-family="Monospace" font-weight="bold" pointer-events="none" text-anchor="middle" font-size="15px"><text x="298.5" y="119">Games</text></g><rect x="214" y="126" width="170" height="26" fill="#ffd6cc" stroke="#919191" pointer-events="none"/><g fill="#333333" font-family="Monospace" pointer-events="none" clip-path="url(#mx-clip-218-131-162-26-0)" font-size="15px"><text x="219.5" y="146.5">game_id</text></g><rect x="214" y="152" width="170" height="26" fill="#ffd6cc" stroke="#919191" pointer-events="none"/><g fill="#333333" font-family="Monospace" pointer-events="none" clip-path="url(#mx-clip-218-157-162-26-0)" font-size="15px"><text x="219.5" y="172.5">home/away_club_id</text></g><rect x="214" y="178" width="170" height="26" fill="#ffd6cc" stroke="#919191" pointer-events="none"/><g fill="#333333" font-family="Monospace" pointer-events="none" clip-path="url(#mx-clip-218-183-162-26-0)" font-size="15px"><text x="219.5" y="198.5">competition_id</text></g><path d="M 444 126 L 444 100 L 574 100 L 574 126" fill="#ffc9b3" stroke="#919191" stroke-miterlimit="10" pointer-events="none"/><path d="M 444 126 L 444 178 L 574 178 L 574 126" fill="none" stroke="#919191" stroke-miterlimit="10" pointer-events="none"/><path d="M 444 126 L 574 126" fill="none" stroke="#919191" stroke-miterlimit="10" pointer-events="none"/><g fill="#333333" font-family="Monospace" font-weight="bold" pointer-events="none" text-anchor="middle" font-size="15px"><text x="508.5" y="119">Appearances</text></g><rect x="444" y="126" width="130" height="26" fill="#ffd6cc" stroke="#919191" pointer-events="none"/><g fill="#333333" font-family="Monospace" pointer-events="none" clip-path="url(#mx-clip-448-131-122-26-0)" font-size="15px"><text x="449.5" y="146.5">game_id</text></g><rect x="444" y="152" width="130" height="26" fill="#ffd6cc" stroke="#919191" pointer-events="none"/><g fill="#333333" font-family="Monospace" pointer-events="none" clip-path="url(#mx-clip-448-157-122-26-0)" font-size="15px"><text x="449.5" y="172.5">player_id</text></g><path d="M 450 26 L 450 0 L 600 0 L 600 26" fill="#ffc9b3" stroke="#919191" stroke-miterlimit="10" pointer-events="none"/><path d="M 450 26 L 450 78 L 600 78 L 600 26" fill="none" stroke="#919191" stroke-miterlimit="10" pointer-events="none"/><path d="M 450 26 L 600 26" fill="none" stroke="#919191" stroke-miterlimit="10" pointer-events="none"/><g fill="#333333" font-family="Monospace" font-weight="bold" pointer-events="none" text-anchor="middle" font-size="15px"><text x="524.5" y="19">Players</text></g><rect x="450" y="26" width="150" height="26" fill="#ffd6cc" stroke="#919191" pointer-events="none"/><g fill="#333333" font-family="Monospace" pointer-events="none" clip-path="url(#mx-clip-454-31-142-26-0)" font-size="15px"><text x="455.5" y="46.5">player_id</text></g><rect x="450" y="52" width="150" height="26" fill="#ffd6cc" stroke="#919191" pointer-events="none"/><g fill="#333333" font-family="Monospace" pointer-events="none" clip-path="url(#mx-clip-454-57-142-26-0)" font-size="15px"><text x="455.5" y="72.5">current_club_id</text></g><path d="M 190 26 L 190 0 L 410 0 L 410 26" fill="#ffc9b3" stroke="#919191" stroke-miterlimit="10" pointer-events="none"/><path d="M 190 26 L 190 78 L 410 78 L 410 26" fill="none" stroke="#919191" stroke-miterlimit="10" pointer-events="none"/><path d="M 190 26 L 410 26" fill="none" stroke="#919191" stroke-miterlimit="10" pointer-events="none"/><g fill="#333333" font-family="Monospace" font-weight="bold" pointer-events="none" text-anchor="middle" font-size="15px"><text x="299.5" y="19">Clubs</text></g><rect x="190" y="26" width="220" height="26" fill="#ffd6cc" stroke="#919191" pointer-events="none"/><g fill="#333333" font-family="Monospace" pointer-events="none" clip-path="url(#mx-clip-194-31-212-26-0)" font-size="15px"><text x="195.5" y="46.5">domestic_competition_id</text></g><rect x="190" y="52" width="220" height="26" fill="#ffd6cc" stroke="#919191" pointer-events="none"/><g fill="#333333" font-family="Monospace" pointer-events="none" clip-path="url(#mx-clip-194-57-212-26-0)" font-size="15px"><text x="195.5" y="72.5">club_id</text></g><path d="M 0 26 L 0 0 L 140 0 L 140 26" fill="#ffc9b3" stroke="#919191" stroke-miterlimit="10" pointer-events="none"/><path d="M 0 26 L 0 52 L 140 52 L 140 26" fill="none" stroke="#919191" stroke-miterlimit="10" pointer-events="none"/><path d="M 0 26 L 140 26" fill="none" stroke="#919191" stroke-miterlimit="10" pointer-events="none"/><g fill="#333333" font-family="Monospace" font-weight="bold" pointer-events="none" text-anchor="middle" font-size="15px"><text x="69.5" y="19">Competitions</text></g><rect x="0" y="26" width="140" height="26" fill="#ffd6cc" stroke="#919191" pointer-events="none"/><g fill="#333333" font-family="Monospace" pointer-events="none" clip-path="url(#mx-clip-4-31-132-26-0)" font-size="15px"><text x="5.5" y="46.5">competition_id</text></g><path d="M 146.37 39 Q 160 39 160 115 Q 160 191 207.63 191" fill="none" stroke="#919191" stroke-miterlimit="10" pointer-events="none"/><path d="M 141.12 39 L 148.12 35.5 L 146.37 39 L 148.12 42.5 Z" fill="#919191" stroke="#919191" stroke-miterlimit="10" pointer-events="none"/><path d="M 212.88 191 L 205.88 194.5 L 207.63 191 L 205.88 187.5 Z" fill="#919191" stroke="#919191" stroke-miterlimit="10" pointer-events="none"/><path d="M 190 65 Q 170 65 170 115 Q 170 165 207.63 165" fill="none" stroke="#919191" stroke-miterlimit="10" pointer-events="none"/><path d="M 212.88 165 L 205.88 168.5 L 207.63 165 L 205.88 161.5 Z" fill="#919191" stroke="#919191" stroke-miterlimit="10" pointer-events="none"/><path d="M 390.37 139 Q 390.37 139 437.63 139" fill="none" stroke="#919191" stroke-miterlimit="10" pointer-events="none"/><path d="M 385.12 139 L 392.12 135.5 L 390.37 139 L 392.12 142.5 Z" fill="#919191" stroke="#919191" stroke-miterlimit="10" pointer-events="none"/><path d="M 442.88 139 L 435.88 142.5 L 437.63 139 L 435.88 135.5 Z" fill="#919191" stroke="#919191" stroke-miterlimit="10" pointer-events="none"/><path d="M 416.37 65 Q 416.37 65 443.63 65" fill="none" stroke="#919191" stroke-miterlimit="10" pointer-events="none"/><path d="M 411.12 65 L 418.12 61.5 L 416.37 65 L 418.12 68.5 Z" fill="#919191" stroke="#919191" stroke-miterlimit="10" pointer-events="none"/><path d="M 448.88 65 L 441.88 68.5 L 443.63 65 L 441.88 61.5 Z" fill="#919191" stroke="#919191" stroke-miterlimit="10" pointer-events="none"/><path d="M 606.37 39 Q 620 39 620 102 Q 620 165 580.37 165" fill="none" stroke="#919191" stroke-miterlimit="10" pointer-events="none"/><path d="M 601.12 39 L 608.12 35.5 L 606.37 39 L 608.12 42.5 Z" fill="#919191" stroke="#919191" stroke-miterlimit="10" pointer-events="none"/><path d="M 575.12 165 L 582.12 161.5 L 580.37 165 L 582.12 168.5 Z" fill="#919191" stroke="#919191" stroke-miterlimit="10" pointer-events="none"/><path d="M 146.37 39 Q 146.37 39 183.63 39" fill="none" stroke="#919191" stroke-miterlimit="10" pointer-events="none"/><path d="M 141.12 39 L 148.12 35.5 L 146.37 39 L 148.12 42.5 Z" fill="#919191" stroke="#919191" stroke-miterlimit="10" pointer-events="none"/><path d="M 188.88 39 L 181.88 42.5 L 183.63 39 L 181.88 35.5 Z" fill="#919191" stroke="#919191" stroke-miterlimit="10" pointer-events="none"/><path d="M 640 26 L 640 0 L 810 0 L 810 26" fill="#ffc9b3" stroke="#919191" stroke-miterlimit="10" pointer-events="none"/><path d="M 640 26 L 640 52 L 810 52 L 810 26" fill="none" stroke="#919191" stroke-miterlimit="10" pointer-events="none"/><path d="M 640 26 L 810 26" fill="none" stroke="#919191" stroke-miterlimit="10" pointer-events="none"/><g fill="#333333" font-family="Monospace" font-weight="bold" pointer-events="none" text-anchor="middle" font-size="15px"><text x="724.5" y="19">Player Valuations</text></g><rect x="640" y="26" width="170" height="26" fill="#ffd6cc" stroke="#919191" pointer-events="none"/><g fill="#333333" font-family="Monospace" pointer-events="none" clip-path="url(#mx-clip-644-31-162-26-0)" font-size="15px"><text x="645.5" y="46.5">player_id</text></g><path d="M 633.63 39 Q 633.63 39 606.37 39" fill="none" stroke="#919191" stroke-miterlimit="10" pointer-events="none"/><path d="M 638.88 39 L 631.88 42.5 L 633.63 39 L 631.88 35.5 Z" fill="#919191" stroke="#919191" stroke-miterlimit="10" pointer-events="none"/><path d="M 601.12 39 L 608.12 35.5 L 606.37 39 L 608.12 42.5 Z" fill="#919191" stroke="#919191" stroke-miterlimit="10" pointer-events="none"/></g></svg>